<svg width="46" height="106" viewBox="0 0 46 106" fill="none" xmlns="http://www.w3.org/2000/svg">
<path d="M1.53631 16V5.5H4.32631L7.20631 11.17L10.0863 5.5H12.8763V16H10.8213V8.275L7.17631 15.25L3.54631 8.245V16H1.53631ZM16.9724 16.135C16.4124 16.135 15.9174 16.035 15.4874 15.835C15.0574 15.625 14.7224 15.34 14.4824 14.98C14.2424 14.62 14.1224 14.205 14.1224 13.735C14.1224 12.985 14.4024 12.405 14.9624 11.995C15.5324 11.575 16.3124 11.365 17.3024 11.365C17.9824 11.365 18.6224 11.47 19.2224 11.68V11.11C19.2224 10.66 19.0824 10.32 18.8024 10.09C18.5224 9.86 18.1124 9.745 17.5724 9.745C17.2424 9.745 16.8874 9.8 16.5074 9.91C16.1274 10.01 15.6874 10.17 15.1874 10.39L14.4374 8.875C15.0574 8.595 15.6474 8.385 16.2074 8.245C16.7774 8.105 17.3474 8.035 17.9174 8.035C18.9674 8.035 19.7824 8.29 20.3624 8.8C20.9524 9.3 21.2474 10.01 21.2474 10.93V16H19.2224V15.445C18.9024 15.685 18.5574 15.86 18.1874 15.97C17.8174 16.08 17.4124 16.135 16.9724 16.135ZM16.0724 13.69C16.0724 13.99 16.2024 14.23 16.4624 14.41C16.7224 14.58 17.0674 14.665 17.4974 14.665C17.8374 14.665 18.1524 14.625 18.4424 14.545C18.7324 14.455 18.9924 14.325 19.2224 14.155V13.015C18.9724 12.915 18.7124 12.84 18.4424 12.79C18.1724 12.74 17.8824 12.715 17.5724 12.715C17.1024 12.715 16.7324 12.805 16.4624 12.985C16.2024 13.155 16.0724 13.39 16.0724 13.69ZM22.8027 19.06V8.185H24.8277V8.83C25.4677 8.33 26.2077 8.08 27.0477 8.08C27.7877 8.08 28.4577 8.26 29.0577 8.62C29.6577 8.98 30.1327 9.465 30.4827 10.075C30.8427 10.675 31.0227 11.35 31.0227 12.1C31.0227 12.85 30.8427 13.53 30.4827 14.14C30.1227 14.74 29.6377 15.22 29.0277 15.58C28.4177 15.93 27.7377 16.105 26.9877 16.105C26.5977 16.105 26.2227 16.055 25.8627 15.955C25.5027 15.845 25.1677 15.69 24.8577 15.49V19.06H22.8027ZM26.7177 14.365C27.1477 14.365 27.5327 14.265 27.8727 14.065C28.2227 13.865 28.4977 13.595 28.6977 13.255C28.8977 12.915 28.9977 12.53 28.9977 12.1C28.9977 11.67 28.8977 11.285 28.6977 10.945C28.4977 10.595 28.2227 10.325 27.8727 10.135C27.5327 9.935 27.1477 9.835 26.7177 9.835C26.3377 9.835 25.9877 9.9 25.6677 10.03C25.3577 10.15 25.0877 10.335 24.8577 10.585V13.63C25.0777 13.86 25.3477 14.04 25.6677 14.17C25.9977 14.3 26.3477 14.365 26.7177 14.365Z" fill="#212121"/>
<path d="M3.71131 56.065H5.54131C6.01131 56.065 6.44631 55.985 6.84631 55.825C7.25631 55.655 7.61131 55.42 7.91131 55.12C8.22131 54.82 8.45631 54.47 8.61631 54.07C8.78631 53.67 8.87131 53.235 8.87131 52.765C8.87131 52.295 8.78631 51.86 8.61631 51.46C8.44631 51.05 8.21131 50.695 7.91131 50.395C7.61131 50.095 7.25631 49.86 6.84631 49.69C6.44631 49.52 6.01131 49.435 5.54131 49.435H3.71131V56.065ZM1.53631 58V47.5H5.57131C6.36131 47.5 7.09131 47.635 7.76131 47.905C8.43131 48.165 9.01631 48.535 9.51631 49.015C10.0163 49.495 10.4063 50.055 10.6863 50.695C10.9763 51.335 11.1213 52.025 11.1213 52.765C11.1213 53.515 10.9813 54.205 10.7013 54.835C10.4213 55.465 10.0263 56.02 9.51631 56.5C9.01631 56.97 8.43131 57.34 7.76131 57.61C7.09131 57.87 6.36131 58 5.57131 58H1.53631ZM14.819 58.135C14.259 58.135 13.764 58.035 13.334 57.835C12.904 57.625 12.569 57.34 12.329 56.98C12.089 56.62 11.969 56.205 11.969 55.735C11.969 54.985 12.249 54.405 12.809 53.995C13.379 53.575 14.159 53.365 15.149 53.365C15.829 53.365 16.469 53.47 17.069 53.68V53.11C17.069 52.66 16.929 52.32 16.649 52.09C16.369 51.86 15.959 51.745 15.419 51.745C15.089 51.745 14.734 51.8 14.354 51.91C13.974 52.01 13.534 52.17 13.034 52.39L12.284 50.875C12.904 50.595 13.494 50.385 14.054 50.245C14.624 50.105 15.194 50.035 15.764 50.035C16.814 50.035 17.629 50.29 18.209 50.8C18.799 51.3 19.094 52.01 19.094 52.93V58H17.069V57.445C16.749 57.685 16.404 57.86 16.034 57.97C15.664 58.08 15.259 58.135 14.819 58.135ZM13.919 55.69C13.919 55.99 14.049 56.23 14.309 56.41C14.569 56.58 14.914 56.665 15.344 56.665C15.684 56.665 15.999 56.625 16.289 56.545C16.579 56.455 16.839 56.325 17.069 56.155V55.015C16.819 54.915 16.559 54.84 16.289 54.79C16.019 54.74 15.729 54.715 15.419 54.715C14.949 54.715 14.579 54.805 14.309 54.985C14.049 55.155 13.919 55.39 13.919 55.69ZM24.1346 58.12C23.2646 58.12 22.6046 57.925 22.1546 57.535C21.7146 57.135 21.4946 56.555 21.4946 55.795V51.895H19.8896V50.185H21.4946V48.19L23.5496 47.725V50.185H25.7846V51.895H23.5496V55.375C23.5496 55.735 23.6296 55.995 23.7896 56.155C23.9496 56.305 24.2296 56.38 24.6296 56.38C24.8296 56.38 25.0096 56.37 25.1696 56.35C25.3396 56.32 25.5246 56.27 25.7246 56.2V57.895C25.5146 57.965 25.2496 58.02 24.9296 58.06C24.6196 58.1 24.3546 58.12 24.1346 58.12ZM29.2771 58.135C28.7171 58.135 28.2221 58.035 27.7921 57.835C27.3621 57.625 27.0271 57.34 26.7871 56.98C26.5471 56.62 26.4271 56.205 26.4271 55.735C26.4271 54.985 26.7071 54.405 27.2671 53.995C27.8371 53.575 28.6171 53.365 29.6071 53.365C30.2871 53.365 30.9271 53.47 31.5271 53.68V53.11C31.5271 52.66 31.3871 52.32 31.1071 52.09C30.8271 51.86 30.4171 51.745 29.8771 51.745C29.5471 51.745 29.1921 51.8 28.8121 51.91C28.4321 52.01 27.9921 52.17 27.4921 52.39L26.7421 50.875C27.3621 50.595 27.9521 50.385 28.5121 50.245C29.0821 50.105 29.6521 50.035 30.2221 50.035C31.2721 50.035 32.0871 50.29 32.6671 50.8C33.2571 51.3 33.5521 52.01 33.5521 52.93V58H31.5271V57.445C31.2071 57.685 30.8621 57.86 30.4921 57.97C30.1221 58.08 29.7171 58.135 29.2771 58.135ZM28.3771 55.69C28.3771 55.99 28.5071 56.23 28.7671 56.41C29.0271 56.58 29.3721 56.665 29.8021 56.665C30.1421 56.665 30.4571 56.625 30.7471 56.545C31.0371 56.455 31.2971 56.325 31.5271 56.155V55.015C31.2771 54.915 31.0171 54.84 30.7471 54.79C30.4771 54.74 30.1871 54.715 29.8771 54.715C29.4071 54.715 29.0371 54.805 28.7671 54.985C28.5071 55.155 28.3771 55.39 28.3771 55.69Z" fill="#212121"/>
<path d="M0.531309 100L4.85131 89.5H7.35631L11.6313 100H9.27631L8.21131 97.24H3.87631L2.79631 100H0.531309ZM4.55131 95.5H7.55131L6.05131 91.63L4.55131 95.5ZM12.3876 100V89.5L14.4426 89.155V92.815C15.0626 92.325 15.7926 92.08 16.6326 92.08C17.3726 92.08 18.0426 92.26 18.6426 92.62C19.2426 92.98 19.7176 93.465 20.0676 94.075C20.4276 94.675 20.6076 95.35 20.6076 96.1C20.6076 96.85 20.4276 97.53 20.0676 98.14C19.7076 98.74 19.2226 99.22 18.6126 99.58C18.0026 99.93 17.3226 100.105 16.5726 100.105C16.1826 100.105 15.8026 100.05 15.4326 99.94C15.0626 99.83 14.7226 99.67 14.4126 99.46V100H12.3876ZM16.3026 98.365C16.7326 98.365 17.1176 98.265 17.4576 98.065C17.8076 97.865 18.0826 97.595 18.2826 97.255C18.4826 96.915 18.5826 96.53 18.5826 96.1C18.5826 95.67 18.4826 95.285 18.2826 94.945C18.0826 94.595 17.8076 94.325 17.4576 94.135C17.1176 93.935 16.7326 93.835 16.3026 93.835C15.9226 93.835 15.5726 93.9 15.2526 94.03C14.9426 94.15 14.6726 94.335 14.4426 94.585V97.63C14.6626 97.86 14.9326 98.04 15.2526 98.17C15.5826 98.3 15.9326 98.365 16.3026 98.365ZM25.6605 100.15C24.8805 100.15 24.1755 99.97 23.5455 99.61C22.9155 99.25 22.4155 98.765 22.0455 98.155C21.6755 97.545 21.4905 96.86 21.4905 96.1C21.4905 95.34 21.6705 94.655 22.0305 94.045C22.4005 93.425 22.9005 92.935 23.5305 92.575C24.1705 92.215 24.8805 92.035 25.6605 92.035C26.4405 92.035 27.1455 92.215 27.7755 92.575C28.4155 92.935 28.9155 93.425 29.2755 94.045C29.6455 94.655 29.8305 95.34 29.8305 96.1C29.8305 96.86 29.6455 97.545 29.2755 98.155C28.9155 98.765 28.4205 99.25 27.7905 99.61C27.1605 99.97 26.4505 100.15 25.6605 100.15ZM25.6605 98.365C26.0705 98.365 26.4355 98.265 26.7555 98.065C27.0855 97.865 27.3455 97.595 27.5355 97.255C27.7355 96.905 27.8355 96.52 27.8355 96.1C27.8355 95.67 27.7355 95.285 27.5355 94.945C27.3455 94.605 27.0855 94.335 26.7555 94.135C26.4355 93.925 26.0705 93.82 25.6605 93.82C25.2605 93.82 24.8955 93.925 24.5655 94.135C24.2355 94.335 23.9755 94.605 23.7855 94.945C23.5955 95.285 23.5005 95.67 23.5005 96.1C23.5005 96.52 23.5955 96.905 23.7855 97.255C23.9755 97.595 24.2355 97.865 24.5655 98.065C24.8955 98.265 25.2605 98.365 25.6605 98.365ZM34.1237 100.15C33.5237 100.15 32.9887 100.02 32.5187 99.76C32.0587 99.49 31.6937 99.12 31.4237 98.65C31.1637 98.18 31.0337 97.64 31.0337 97.03V92.185H33.0887V96.73C33.0887 97.23 33.2337 97.63 33.5237 97.93C33.8237 98.23 34.2237 98.38 34.7237 98.38C35.0637 98.38 35.3687 98.315 35.6387 98.185C35.9187 98.045 36.1487 97.85 36.3287 97.6V92.185H38.3837V100H36.3287V99.37C35.7287 99.89 34.9937 100.15 34.1237 100.15ZM43.6903 100.12C42.8203 100.12 42.1603 99.925 41.7103 99.535C41.2703 99.135 41.0503 98.555 41.0503 97.795V93.895H39.4453V92.185H41.0503V90.19L43.1053 89.725V92.185H45.3403V93.895H43.1053V97.375C43.1053 97.735 43.1853 97.995 43.3453 98.155C43.5053 98.305 43.7853 98.38 44.1853 98.38C44.3853 98.38 44.5653 98.37 44.7253 98.35C44.8953 98.32 45.0803 98.27 45.2803 98.2V99.895C45.0703 99.965 44.8053 100.02 44.4853 100.06C44.1753 100.1 43.9103 100.12 43.6903 100.12Z" fill="#212121"/>
</svg>
