<svg width="275" height="86" viewBox="0 0 275 86" fill="none" xmlns="http://www.w3.org/2000/svg">
<path d="M10.2188 8.78125C10.7188 9.25 11.3125 9.48438 12 9.48438C12.6875 9.48438 13.2656 9.25 13.7344 8.78125C14.2344 8.28125 14.4844 7.6875 14.4844 7C14.4844 6.3125 14.2344 5.73438 13.7344 5.26562C13.2656 4.76562 12.6875 4.51562 12 4.51562C11.3125 4.51562 10.7188 4.76562 10.2188 5.26562C9.75 5.73438 9.51562 6.3125 9.51562 7C9.51562 7.6875 9.75 8.28125 10.2188 8.78125ZM7.03125 2.07812C8.40625 0.703125 10.0625 0.015625 12 0.015625C13.9375 0.015625 15.5781 0.703125 16.9219 2.07812C18.2969 3.42188 18.9844 5.0625 18.9844 7C18.9844 7.96875 18.7344 9.07812 18.2344 10.3281C17.7656 11.5781 17.1875 12.75 16.5 13.8438C15.8125 14.9375 15.125 15.9688 14.4375 16.9375C13.7812 17.875 13.2188 18.625 12.75 19.1875L12 19.9844C11.8125 19.7656 11.5625 19.4844 11.25 19.1406C10.9375 18.7656 10.375 18.0469 9.5625 16.9844C8.75 15.8906 8.03125 14.8438 7.40625 13.8438C6.8125 12.8125 6.26562 11.6562 5.76562 10.375C5.26562 9.09375 5.01562 7.96875 5.01562 7C5.01562 5.0625 5.6875 3.42188 7.03125 2.07812Z" fill="#757575"/>
<path d="M38.56 15.15C37.73 15.15 36.935 14.985 36.175 14.655C35.415 14.315 34.745 13.83 34.165 13.2L34.93 12.405C35.47 12.985 36.045 13.42 36.655 13.71C37.275 14 37.925 14.145 38.605 14.145C39.155 14.145 39.64 14.06 40.06 13.89C40.49 13.71 40.825 13.465 41.065 13.155C41.305 12.835 41.425 12.475 41.425 12.075C41.425 11.535 41.235 11.12 40.855 10.83C40.485 10.54 39.87 10.325 39.01 10.185L37.495 9.945C36.485 9.775 35.74 9.475 35.26 9.045C34.78 8.615 34.54 8.03 34.54 7.29C34.54 6.71 34.695 6.2 35.005 5.76C35.315 5.32 35.745 4.98 36.295 4.74C36.855 4.49 37.5 4.365 38.23 4.365C38.97 4.365 39.695 4.485 40.405 4.725C41.125 4.965 41.78 5.31 42.37 5.76L41.71 6.66C40.56 5.79 39.385 5.355 38.185 5.355C37.685 5.355 37.245 5.435 36.865 5.595C36.485 5.745 36.19 5.96 35.98 6.24C35.77 6.51 35.665 6.83 35.665 7.2C35.665 7.69 35.83 8.065 36.16 8.325C36.49 8.585 37.035 8.775 37.795 8.895L39.295 9.135C40.445 9.325 41.28 9.65 41.8 10.11C42.32 10.56 42.58 11.195 42.58 12.015C42.58 12.625 42.41 13.17 42.07 13.65C41.73 14.12 41.255 14.49 40.645 14.76C40.045 15.02 39.35 15.15 38.56 15.15ZM47.6106 15.135C46.8906 15.135 46.2356 14.965 45.6456 14.625C45.0656 14.275 44.6006 13.805 44.2506 13.215C43.9106 12.625 43.7406 11.965 43.7406 11.235C43.7406 10.515 43.9056 9.865 44.2356 9.285C44.5656 8.695 45.0106 8.23 45.5706 7.89C46.1306 7.54 46.7556 7.365 47.4456 7.365C48.1156 7.365 48.7156 7.54 49.2456 7.89C49.7856 8.23 50.2106 8.695 50.5206 9.285C50.8406 9.865 51.0006 10.515 51.0006 11.235V11.58H44.8356C44.8956 12.07 45.0506 12.51 45.3006 12.9C45.5606 13.29 45.8956 13.6 46.3056 13.83C46.7156 14.05 47.1656 14.16 47.6556 14.16C48.0456 14.16 48.4256 14.1 48.7956 13.98C49.1656 13.86 49.4756 13.69 49.7256 13.47L50.4156 14.205C49.9956 14.515 49.5556 14.75 49.0956 14.91C48.6456 15.06 48.1506 15.135 47.6106 15.135ZM44.8656 10.695H49.8906C49.8306 10.245 49.6806 9.845 49.4406 9.495C49.2106 9.135 48.9206 8.855 48.5706 8.655C48.2206 8.445 47.8356 8.34 47.4156 8.34C46.9856 8.34 46.5906 8.44 46.2306 8.64C45.8706 8.84 45.5706 9.12 45.3306 9.48C45.0906 9.83 44.9356 10.235 44.8656 10.695ZM54.7759 15.135C54.2259 15.135 53.7409 15.04 53.3209 14.85C52.9109 14.66 52.5859 14.395 52.3459 14.055C52.1159 13.715 52.0009 13.32 52.0009 12.87C52.0009 12.16 52.2709 11.6 52.8109 11.19C53.3509 10.78 54.0809 10.575 55.0009 10.575C55.8109 10.575 56.5459 10.745 57.2059 11.085V10.095C57.2059 9.495 57.0359 9.045 56.6959 8.745C56.3559 8.435 55.8609 8.28 55.2109 8.28C54.8409 8.28 54.4659 8.335 54.0859 8.445C53.7159 8.545 53.3059 8.71 52.8559 8.94L52.4359 8.085C52.9759 7.825 53.4759 7.635 53.9359 7.515C54.3959 7.395 54.8559 7.335 55.3159 7.335C56.2659 7.335 56.9959 7.56 57.5059 8.01C58.0259 8.46 58.2859 9.105 58.2859 9.945V15H57.2059V14.265C56.8659 14.555 56.4909 14.775 56.0809 14.925C55.6809 15.065 55.2459 15.135 54.7759 15.135ZM53.0659 12.84C53.0659 13.26 53.2409 13.605 53.5909 13.875C53.9509 14.135 54.4109 14.265 54.9709 14.265C55.4209 14.265 55.8309 14.195 56.2009 14.055C56.5709 13.915 56.9059 13.695 57.2059 13.395V11.985C56.8959 11.775 56.5659 11.625 56.2159 11.535C55.8659 11.435 55.4709 11.385 55.0309 11.385C54.4309 11.385 53.9509 11.52 53.5909 11.79C53.2409 12.05 53.0659 12.4 53.0659 12.84ZM60.1403 15V7.485H61.2503V8.55C61.4803 8.16 61.7703 7.86 62.1203 7.65C62.4803 7.43 62.8903 7.32 63.3503 7.32C63.6103 7.32 63.8453 7.355 64.0553 7.425V8.445C63.9253 8.395 63.7953 8.36 63.6653 8.34C63.5353 8.32 63.4053 8.31 63.2753 8.31C62.8153 8.31 62.4103 8.445 62.0603 8.715C61.7203 8.975 61.4503 9.355 61.2503 9.855V15H60.1403ZM68.2785 15.135C67.5685 15.135 66.9235 14.965 66.3435 14.625C65.7635 14.275 65.3035 13.805 64.9635 13.215C64.6235 12.625 64.4535 11.965 64.4535 11.235C64.4535 10.505 64.6235 9.85 64.9635 9.27C65.3035 8.68 65.7635 8.21 66.3435 7.86C66.9235 7.51 67.5685 7.335 68.2785 7.335C68.8285 7.335 69.3585 7.44 69.8685 7.65C70.3785 7.85 70.8285 8.14 71.2185 8.52L70.5135 9.33C70.2135 9.01 69.8685 8.77 69.4785 8.61C69.0985 8.44 68.7035 8.355 68.2935 8.355C67.7835 8.355 67.3185 8.485 66.8985 8.745C66.4885 8.995 66.1585 9.34 65.9085 9.78C65.6685 10.21 65.5485 10.695 65.5485 11.235C65.5485 11.775 65.6685 12.265 65.9085 12.705C66.1585 13.145 66.4935 13.495 66.9135 13.755C67.3335 14.005 67.7985 14.13 68.3085 14.13C68.7185 14.13 69.1035 14.05 69.4635 13.89C69.8335 13.73 70.1785 13.495 70.4985 13.185L71.1885 13.935C70.7885 14.315 70.3385 14.61 69.8385 14.82C69.3385 15.03 68.8185 15.135 68.2785 15.135ZM72.4889 15V4.5L73.5989 4.245V8.37C74.1889 7.68 74.9789 7.335 75.9689 7.335C76.5389 7.335 77.0389 7.46 77.4689 7.71C77.9089 7.95 78.2489 8.29 78.4889 8.73C78.7389 9.16 78.8639 9.665 78.8639 10.245V15H77.7689V10.47C77.7689 9.8 77.5789 9.275 77.1989 8.895C76.8289 8.505 76.3189 8.31 75.6689 8.31C75.2189 8.31 74.8189 8.41 74.4689 8.61C74.1189 8.81 73.8289 9.095 73.5989 9.465V15H72.4889ZM84.154 15V4.5H88.714C89.404 4.5 89.999 4.625 90.499 4.875C91.009 5.125 91.404 5.48 91.684 5.94C91.964 6.39 92.104 6.92 92.104 7.53C92.104 8.14 91.964 8.675 91.684 9.135C91.404 9.585 91.009 9.94 90.499 10.2C89.989 10.45 89.394 10.575 88.714 10.575H85.309V15H84.154ZM85.309 9.57H88.624C89.334 9.57 89.899 9.39 90.319 9.03C90.739 8.66 90.949 8.165 90.949 7.545C90.949 6.925 90.739 6.435 90.319 6.075C89.899 5.715 89.334 5.535 88.624 5.535H85.309V9.57ZM93.5827 15V7.485H94.6927V8.55C94.9227 8.16 95.2127 7.86 95.5627 7.65C95.9227 7.43 96.3327 7.32 96.7927 7.32C97.0527 7.32 97.2877 7.355 97.4977 7.425V8.445C97.3677 8.395 97.2377 8.36 97.1077 8.34C96.9777 8.32 96.8477 8.31 96.7177 8.31C96.2577 8.31 95.8527 8.445 95.5027 8.715C95.1627 8.975 94.8927 9.355 94.6927 9.855V15H93.5827ZM101.736 15.15C101.026 15.15 100.376 14.98 99.7859 14.64C99.2059 14.29 98.7459 13.82 98.4059 13.23C98.0659 12.64 97.8959 11.98 97.8959 11.25C97.8959 10.52 98.0659 9.86 98.4059 9.27C98.7459 8.68 99.2059 8.215 99.7859 7.875C100.376 7.525 101.026 7.35 101.736 7.35C102.456 7.35 103.106 7.525 103.686 7.875C104.266 8.215 104.726 8.68 105.066 9.27C105.406 9.86 105.576 10.52 105.576 11.25C105.576 11.98 105.406 12.64 105.066 13.23C104.726 13.82 104.266 14.29 103.686 14.64C103.106 14.98 102.456 15.15 101.736 15.15ZM101.736 14.16C102.246 14.16 102.706 14.03 103.116 13.77C103.536 13.51 103.866 13.16 104.106 12.72C104.356 12.28 104.481 11.79 104.481 11.25C104.481 10.7 104.356 10.21 104.106 9.78C103.866 9.34 103.536 8.99 103.116 8.73C102.706 8.47 102.246 8.34 101.736 8.34C101.226 8.34 100.761 8.47 100.341 8.73C99.9309 8.99 99.6009 9.34 99.3509 9.78C99.1109 10.21 98.9909 10.7 98.9909 11.25C98.9909 11.79 99.1109 12.28 99.3509 12.72C99.6009 13.16 99.9309 13.51 100.341 13.77C100.761 14.03 101.226 14.16 101.736 14.16ZM107.673 6.045C107.473 6.045 107.298 5.97 107.148 5.82C106.998 5.67 106.923 5.495 106.923 5.295C106.923 5.085 106.998 4.91 107.148 4.77C107.298 4.62 107.473 4.545 107.673 4.545C107.883 4.545 108.058 4.62 108.198 4.77C108.348 4.91 108.423 5.085 108.423 5.295C108.423 5.495 108.348 5.67 108.198 5.82C108.058 5.97 107.883 6.045 107.673 6.045ZM106.293 18.21C106.153 18.21 106.023 18.2 105.903 18.18C105.783 18.16 105.683 18.14 105.603 18.12V17.19C105.763 17.23 105.948 17.25 106.158 17.25C106.508 17.25 106.753 17.17 106.893 17.01C107.043 16.85 107.118 16.59 107.118 16.23V7.485H108.228V16.32C108.228 16.93 108.058 17.395 107.718 17.715C107.388 18.045 106.913 18.21 106.293 18.21ZM113.646 15.135C112.926 15.135 112.271 14.965 111.681 14.625C111.101 14.275 110.636 13.805 110.286 13.215C109.946 12.625 109.776 11.965 109.776 11.235C109.776 10.515 109.941 9.865 110.271 9.285C110.601 8.695 111.046 8.23 111.606 7.89C112.166 7.54 112.791 7.365 113.481 7.365C114.151 7.365 114.751 7.54 115.281 7.89C115.821 8.23 116.246 8.695 116.556 9.285C116.876 9.865 117.036 10.515 117.036 11.235V11.58H110.871C110.931 12.07 111.086 12.51 111.336 12.9C111.596 13.29 111.931 13.6 112.341 13.83C112.751 14.05 113.201 14.16 113.691 14.16C114.081 14.16 114.461 14.1 114.831 13.98C115.201 13.86 115.511 13.69 115.761 13.47L116.451 14.205C116.031 14.515 115.591 14.75 115.131 14.91C114.681 15.06 114.186 15.135 113.646 15.135ZM110.901 10.695H115.926C115.866 10.245 115.716 9.845 115.476 9.495C115.246 9.135 114.956 8.855 114.606 8.655C114.256 8.445 113.871 8.34 113.451 8.34C113.021 8.34 112.626 8.44 112.266 8.64C111.906 8.84 111.606 9.12 111.366 9.48C111.126 9.83 110.971 10.235 110.901 10.695ZM122.068 15.135C121.358 15.135 120.713 14.965 120.133 14.625C119.553 14.275 119.093 13.805 118.753 13.215C118.413 12.625 118.243 11.965 118.243 11.235C118.243 10.505 118.413 9.85 118.753 9.27C119.093 8.68 119.553 8.21 120.133 7.86C120.713 7.51 121.358 7.335 122.068 7.335C122.618 7.335 123.148 7.44 123.658 7.65C124.168 7.85 124.618 8.14 125.008 8.52L124.303 9.33C124.003 9.01 123.658 8.77 123.268 8.61C122.888 8.44 122.493 8.355 122.083 8.355C121.573 8.355 121.108 8.485 120.688 8.745C120.278 8.995 119.948 9.34 119.698 9.78C119.458 10.21 119.338 10.695 119.338 11.235C119.338 11.775 119.458 12.265 119.698 12.705C119.948 13.145 120.283 13.495 120.703 13.755C121.123 14.005 121.588 14.13 122.098 14.13C122.508 14.13 122.893 14.05 123.253 13.89C123.623 13.73 123.968 13.495 124.288 13.185L124.978 13.935C124.578 14.315 124.128 14.61 123.628 14.82C123.128 15.03 122.608 15.135 122.068 15.135ZM129.379 15.15C128.729 15.15 128.229 14.995 127.879 14.685C127.529 14.375 127.354 13.925 127.354 13.335V8.43H125.734V7.485H127.354V5.58L128.449 5.295V7.485H130.714V8.43H128.449V13.05C128.449 13.45 128.539 13.74 128.719 13.92C128.899 14.09 129.194 14.175 129.604 14.175C129.814 14.175 129.999 14.16 130.159 14.13C130.329 14.1 130.509 14.05 130.699 13.98V14.955C130.509 15.025 130.294 15.075 130.054 15.105C129.824 15.135 129.599 15.15 129.379 15.15ZM134.449 15.15C133.829 15.15 133.244 15.05 132.694 14.85C132.154 14.64 131.684 14.35 131.284 13.98L131.959 13.26C132.309 13.58 132.694 13.83 133.114 14.01C133.534 14.18 133.964 14.265 134.404 14.265C135.004 14.265 135.494 14.14 135.874 13.89C136.254 13.64 136.444 13.315 136.444 12.915C136.444 12.585 136.329 12.33 136.099 12.15C135.879 11.96 135.529 11.83 135.049 11.76L133.744 11.58C132.994 11.47 132.434 11.245 132.064 10.905C131.704 10.565 131.524 10.105 131.524 9.525C131.524 9.105 131.644 8.73 131.884 8.4C132.124 8.07 132.454 7.81 132.874 7.62C133.304 7.43 133.794 7.335 134.344 7.335C134.894 7.335 135.409 7.415 135.889 7.575C136.369 7.735 136.839 7.985 137.299 8.325L136.714 9.075C136.294 8.785 135.884 8.575 135.484 8.445C135.094 8.305 134.694 8.235 134.284 8.235C133.764 8.235 133.344 8.35 133.024 8.58C132.704 8.81 132.544 9.11 132.544 9.48C132.544 9.82 132.654 10.08 132.874 10.26C133.094 10.43 133.449 10.55 133.939 10.62L135.244 10.8C135.994 10.9 136.554 11.12 136.924 11.46C137.304 11.8 137.494 12.265 137.494 12.855C137.494 13.285 137.359 13.675 137.089 14.025C136.819 14.375 136.454 14.65 135.994 14.85C135.544 15.05 135.029 15.15 134.449 15.15Z" fill="#212121"/>
<path d="M20.0156 46.375C20.2969 46.375 20.5312 46.4688 20.7188 46.6562C20.9062 46.8438 21 47.0781 21 47.3594V50.8281C21 51.6094 20.6719 52 20.0156 52C15.3594 52 11.3594 50.3281 8.01562 46.9844C4.67188 43.6406 3 39.6406 3 34.9844C3 34.3281 3.39062 34 4.17188 34H7.64062C7.92188 34 8.15625 34.0938 8.34375 34.2812C8.53125 34.4688 8.625 34.7031 8.625 34.9844C8.625 36.2031 8.8125 37.375 9.1875 38.5C9.3125 38.9062 9.23438 39.25 8.95312 39.5312L7.03125 41.2188C8.46875 44.2188 10.7656 46.4844 13.9219 48.0156L15.4688 46.0469C15.6562 45.8594 15.8906 45.7656 16.1719 45.7656C16.3281 45.7656 16.4375 45.7812 16.5 45.8125C17.625 46.1875 18.7969 46.375 20.0156 46.375Z" fill="#757575"/>
<path d="M38.035 45.825V43.11H35.53V42.21H38.035V39.495H38.965V42.21H41.47V43.11H38.965V45.825H38.035ZM46.755 37.335C47.565 37.335 48.275 37.55 48.885 37.98C49.505 38.41 49.99 39.005 50.34 39.765C50.69 40.515 50.865 41.385 50.865 42.375C50.865 43.535 50.67 44.55 50.28 45.42C49.89 46.28 49.34 46.95 48.63 47.43C47.93 47.91 47.105 48.15 46.155 48.15C45.725 48.15 45.29 48.09 44.85 47.97C44.42 47.84 44.035 47.665 43.695 47.445L44.235 46.605C44.545 46.785 44.87 46.925 45.21 47.025C45.56 47.125 45.905 47.175 46.245 47.175C46.965 47.175 47.585 46.99 48.105 46.62C48.635 46.24 49.045 45.7 49.335 45C49.625 44.29 49.775 43.45 49.785 42.48C49.395 42.98 48.93 43.37 48.39 43.65C47.85 43.93 47.29 44.07 46.71 44.07C46.03 44.07 45.425 43.93 44.895 43.65C44.365 43.36 43.95 42.97 43.65 42.48C43.35 41.99 43.2 41.43 43.2 40.8C43.2 40.13 43.355 39.535 43.665 39.015C43.975 38.495 44.395 38.085 44.925 37.785C45.465 37.485 46.075 37.335 46.755 37.335ZM46.86 43.185C47.41 43.185 47.935 43.05 48.435 42.78C48.945 42.5 49.385 42.12 49.755 41.64C49.685 40.96 49.515 40.37 49.245 39.87C48.975 39.37 48.63 38.98 48.21 38.7C47.79 38.42 47.31 38.28 46.77 38.28C46.3 38.28 45.875 38.39 45.495 38.61C45.115 38.82 44.815 39.115 44.595 39.495C44.385 39.865 44.28 40.29 44.28 40.77C44.28 41.24 44.39 41.66 44.61 42.03C44.83 42.39 45.135 42.675 45.525 42.885C45.915 43.085 46.36 43.185 46.86 43.185ZM52.7423 48L57.9623 38.445H51.6623V37.5H59.1323V38.34L53.9723 48H52.7423ZM61.2823 48L66.5023 38.445H60.2023V37.5H67.6723V38.34L62.5123 48H61.2823ZM68.192 44.28V43.29H73.427V44.28H68.192ZM79.131 48.165C78.291 48.165 77.551 47.935 76.911 47.475C76.271 47.015 75.766 46.38 75.396 45.57C75.036 44.75 74.856 43.81 74.856 42.75C74.856 41.69 75.036 40.755 75.396 39.945C75.766 39.125 76.271 38.485 76.911 38.025C77.551 37.565 78.291 37.335 79.131 37.335C79.971 37.335 80.711 37.565 81.351 38.025C81.991 38.485 82.491 39.125 82.851 39.945C83.221 40.755 83.406 41.69 83.406 42.75C83.406 43.81 83.221 44.75 82.851 45.57C82.491 46.38 81.991 47.015 81.351 47.475C80.711 47.935 79.971 48.165 79.131 48.165ZM79.131 47.19C79.781 47.19 80.341 47.01 80.811 46.65C81.291 46.28 81.661 45.76 81.921 45.09C82.181 44.42 82.311 43.64 82.311 42.75C82.311 41.85 82.181 41.07 81.921 40.41C81.661 39.74 81.291 39.225 80.811 38.865C80.341 38.495 79.781 38.31 79.131 38.31C78.491 38.31 77.931 38.495 77.451 38.865C76.971 39.225 76.601 39.74 76.341 40.41C76.081 41.07 75.951 41.85 75.951 42.75C75.951 43.64 76.081 44.42 76.341 45.09C76.601 45.76 76.971 46.28 77.451 46.65C77.931 47.01 78.491 47.19 79.131 47.19ZM86.1412 48V38.655L84.3712 39.435V38.43L86.5312 37.5H87.2362V48H86.1412ZM97.8848 48V45.195H91.9148V44.325L97.8098 37.5H98.9798V44.25H100.24V45.195H98.9798V48H97.8848ZM93.2648 44.25H97.8848V38.895L93.2648 44.25ZM104.732 48.165C103.352 48.165 102.162 47.69 101.162 46.74L101.837 46.005C102.297 46.435 102.752 46.75 103.202 46.95C103.662 47.14 104.177 47.235 104.747 47.235C105.257 47.235 105.707 47.13 106.097 46.92C106.487 46.71 106.787 46.415 106.997 46.035C107.217 45.655 107.327 45.22 107.327 44.73C107.327 44.03 107.087 43.465 106.607 43.035C106.137 42.605 105.517 42.39 104.747 42.39C104.347 42.39 103.957 42.44 103.577 42.54C103.197 42.63 102.802 42.78 102.392 42.99L101.642 42.75L101.882 37.5H107.852V38.445H102.812L102.647 42.075C103.047 41.875 103.432 41.735 103.802 41.655C104.172 41.565 104.562 41.52 104.972 41.52C105.662 41.52 106.262 41.655 106.772 41.925C107.292 42.185 107.692 42.555 107.972 43.035C108.262 43.505 108.407 44.055 108.407 44.685C108.407 45.375 108.252 45.98 107.942 46.5C107.632 47.02 107.202 47.43 106.652 47.73C106.102 48.02 105.462 48.165 104.732 48.165ZM114.068 48.15C113.258 48.15 112.543 47.935 111.923 47.505C111.313 47.075 110.833 46.485 110.483 45.735C110.133 44.975 109.958 44.1 109.958 43.11C109.958 41.95 110.153 40.94 110.543 40.08C110.933 39.21 111.483 38.535 112.193 38.055C112.903 37.575 113.728 37.335 114.668 37.335C115.108 37.335 115.543 37.395 115.973 37.515C116.403 37.635 116.788 37.81 117.128 38.04L116.588 38.88C116.278 38.7 115.953 38.56 115.613 38.46C115.273 38.36 114.928 38.31 114.578 38.31C113.858 38.31 113.233 38.5 112.703 38.88C112.183 39.25 111.778 39.785 111.488 40.485C111.208 41.185 111.058 42.025 111.038 43.005C111.428 42.505 111.893 42.115 112.433 41.835C112.973 41.555 113.533 41.415 114.113 41.415C114.793 41.415 115.398 41.555 115.928 41.835C116.458 42.115 116.873 42.505 117.173 43.005C117.473 43.495 117.623 44.055 117.623 44.685C117.623 45.345 117.468 45.94 117.158 46.47C116.848 46.99 116.423 47.4 115.883 47.7C115.353 48 114.748 48.15 114.068 48.15ZM113.963 42.3C113.413 42.3 112.883 42.44 112.373 42.72C111.873 42.99 111.438 43.365 111.068 43.845C111.148 44.515 111.318 45.105 111.578 45.615C111.848 46.115 112.193 46.505 112.613 46.785C113.043 47.065 113.523 47.205 114.053 47.205C114.533 47.205 114.958 47.1 115.328 46.89C115.708 46.67 116.003 46.37 116.213 45.99C116.433 45.61 116.543 45.185 116.543 44.715C116.543 44.245 116.433 43.83 116.213 43.47C115.993 43.1 115.688 42.815 115.298 42.615C114.918 42.405 114.473 42.3 113.963 42.3ZM122.327 48.165C121.607 48.165 120.932 48.04 120.302 47.79C119.682 47.54 119.132 47.17 118.652 46.68L119.372 45.975C119.812 46.415 120.262 46.735 120.722 46.935C121.192 47.125 121.722 47.22 122.312 47.22C122.822 47.22 123.272 47.13 123.662 46.95C124.062 46.77 124.372 46.52 124.592 46.2C124.812 45.88 124.922 45.515 124.922 45.105C124.922 44.715 124.822 44.37 124.622 44.07C124.432 43.76 124.167 43.52 123.827 43.35C123.487 43.18 123.097 43.095 122.657 43.095H121.412V42.165H122.612C123.182 42.165 123.642 41.99 123.992 41.64C124.352 41.29 124.532 40.835 124.532 40.275C124.532 39.905 124.432 39.57 124.232 39.27C124.032 38.97 123.757 38.735 123.407 38.565C123.067 38.385 122.682 38.295 122.252 38.295C121.712 38.295 121.227 38.395 120.797 38.595C120.377 38.785 119.947 39.11 119.507 39.57L118.787 38.85C119.257 38.35 119.787 37.975 120.377 37.725C120.967 37.465 121.597 37.335 122.267 37.335C122.907 37.335 123.477 37.46 123.977 37.71C124.487 37.96 124.887 38.305 125.177 38.745C125.467 39.175 125.612 39.665 125.612 40.215C125.612 40.765 125.432 41.26 125.072 41.7C124.712 42.13 124.237 42.43 123.647 42.6C124.357 42.76 124.927 43.07 125.357 43.53C125.787 43.99 126.002 44.525 126.002 45.135C126.002 45.715 125.842 46.235 125.522 46.695C125.212 47.155 124.777 47.515 124.217 47.775C123.667 48.035 123.037 48.165 122.327 48.165ZM130.756 48V47.205L134.956 42.615C135.286 42.255 135.541 41.94 135.721 41.67C135.911 41.39 136.041 41.13 136.111 40.89C136.191 40.65 136.231 40.395 136.231 40.125C136.231 39.595 136.021 39.16 135.601 38.82C135.191 38.47 134.666 38.295 134.026 38.295C133.536 38.295 133.081 38.39 132.661 38.58C132.241 38.77 131.771 39.1 131.251 39.57L130.621 38.82C131.171 38.32 131.726 37.95 132.286 37.71C132.846 37.46 133.431 37.335 134.041 37.335C134.671 37.335 135.231 37.455 135.721 37.695C136.211 37.925 136.596 38.245 136.876 38.655C137.156 39.065 137.296 39.535 137.296 40.065C137.296 40.415 137.251 40.74 137.161 41.04C137.071 41.33 136.911 41.645 136.681 41.985C136.451 42.315 136.121 42.715 135.691 43.185L132.106 47.07L137.521 47.055V48H130.756ZM142.41 48.165C141.69 48.165 141.015 48.04 140.385 47.79C139.765 47.54 139.215 47.17 138.735 46.68L139.455 45.975C139.895 46.415 140.345 46.735 140.805 46.935C141.275 47.125 141.805 47.22 142.395 47.22C142.905 47.22 143.355 47.13 143.745 46.95C144.145 46.77 144.455 46.52 144.675 46.2C144.895 45.88 145.005 45.515 145.005 45.105C145.005 44.715 144.905 44.37 144.705 44.07C144.515 43.76 144.25 43.52 143.91 43.35C143.57 43.18 143.18 43.095 142.74 43.095H141.495V42.165H142.695C143.265 42.165 143.725 41.99 144.075 41.64C144.435 41.29 144.615 40.835 144.615 40.275C144.615 39.905 144.515 39.57 144.315 39.27C144.115 38.97 143.84 38.735 143.49 38.565C143.15 38.385 142.765 38.295 142.335 38.295C141.795 38.295 141.31 38.395 140.88 38.595C140.46 38.785 140.03 39.11 139.59 39.57L138.87 38.85C139.34 38.35 139.87 37.975 140.46 37.725C141.05 37.465 141.68 37.335 142.35 37.335C142.99 37.335 143.56 37.46 144.06 37.71C144.57 37.96 144.97 38.305 145.26 38.745C145.55 39.175 145.695 39.665 145.695 40.215C145.695 40.765 145.515 41.26 145.155 41.7C144.795 42.13 144.32 42.43 143.73 42.6C144.44 42.76 145.01 43.07 145.44 43.53C145.87 43.99 146.085 44.525 146.085 45.135C146.085 45.715 145.925 46.235 145.605 46.695C145.295 47.155 144.86 47.515 144.3 47.775C143.75 48.035 143.12 48.165 142.41 48.165ZM150.889 48.165C149.509 48.165 148.319 47.69 147.319 46.74L147.994 46.005C148.454 46.435 148.909 46.75 149.359 46.95C149.819 47.14 150.334 47.235 150.904 47.235C151.414 47.235 151.864 47.13 152.254 46.92C152.644 46.71 152.944 46.415 153.154 46.035C153.374 45.655 153.484 45.22 153.484 44.73C153.484 44.03 153.244 43.465 152.764 43.035C152.294 42.605 151.674 42.39 150.904 42.39C150.504 42.39 150.114 42.44 149.734 42.54C149.354 42.63 148.959 42.78 148.549 42.99L147.799 42.75L148.039 37.5H154.009V38.445H148.969L148.804 42.075C149.204 41.875 149.589 41.735 149.959 41.655C150.329 41.565 150.719 41.52 151.129 41.52C151.819 41.52 152.419 41.655 152.929 41.925C153.449 42.185 153.849 42.555 154.129 43.035C154.419 43.505 154.564 44.055 154.564 44.685C154.564 45.375 154.409 45.98 154.099 46.5C153.789 47.02 153.359 47.43 152.809 47.73C152.259 48.02 151.619 48.165 150.889 48.165ZM155.539 50.055L156.409 46.89H157.609L156.409 50.055H155.539ZM166.817 48.165C165.977 48.165 165.237 47.935 164.597 47.475C163.957 47.015 163.452 46.38 163.082 45.57C162.722 44.75 162.542 43.81 162.542 42.75C162.542 41.69 162.722 40.755 163.082 39.945C163.452 39.125 163.957 38.485 164.597 38.025C165.237 37.565 165.977 37.335 166.817 37.335C167.657 37.335 168.397 37.565 169.037 38.025C169.677 38.485 170.177 39.125 170.537 39.945C170.907 40.755 171.092 41.69 171.092 42.75C171.092 43.81 170.907 44.75 170.537 45.57C170.177 46.38 169.677 47.015 169.037 47.475C168.397 47.935 167.657 48.165 166.817 48.165ZM166.817 47.19C167.467 47.19 168.027 47.01 168.497 46.65C168.977 46.28 169.347 45.76 169.607 45.09C169.867 44.42 169.997 43.64 169.997 42.75C169.997 41.85 169.867 41.07 169.607 40.41C169.347 39.74 168.977 39.225 168.497 38.865C168.027 38.495 167.467 38.31 166.817 38.31C166.177 38.31 165.617 38.495 165.137 38.865C164.657 39.225 164.287 39.74 164.027 40.41C163.767 41.07 163.637 41.85 163.637 42.75C163.637 43.64 163.767 44.42 164.027 45.09C164.287 45.76 164.657 46.28 165.137 46.65C165.617 47.01 166.177 47.19 166.817 47.19ZM173.827 48V38.655L172.057 39.435V38.43L174.217 37.5H174.922V48H173.827ZM185.57 48V45.195H179.6V44.325L185.495 37.5H186.665V44.25H187.925V45.195H186.665V48H185.57ZM180.95 44.25H185.57V38.895L180.95 44.25ZM192.418 48.165C191.038 48.165 189.848 47.69 188.848 46.74L189.523 46.005C189.983 46.435 190.438 46.75 190.888 46.95C191.348 47.14 191.863 47.235 192.433 47.235C192.943 47.235 193.393 47.13 193.783 46.92C194.173 46.71 194.473 46.415 194.683 46.035C194.903 45.655 195.013 45.22 195.013 44.73C195.013 44.03 194.773 43.465 194.293 43.035C193.823 42.605 193.203 42.39 192.433 42.39C192.033 42.39 191.643 42.44 191.263 42.54C190.883 42.63 190.488 42.78 190.078 42.99L189.328 42.75L189.568 37.5H195.538V38.445H190.498L190.333 42.075C190.733 41.875 191.118 41.735 191.488 41.655C191.858 41.565 192.248 41.52 192.658 41.52C193.348 41.52 193.948 41.655 194.458 41.925C194.978 42.185 195.378 42.555 195.658 43.035C195.948 43.505 196.093 44.055 196.093 44.685C196.093 45.375 195.938 45.98 195.628 46.5C195.318 47.02 194.888 47.43 194.338 47.73C193.788 48.02 193.148 48.165 192.418 48.165ZM197.879 48L203.099 38.445H196.799V37.5H204.269V38.34L199.109 48H197.879ZM208.809 48.165C207.429 48.165 206.239 47.69 205.239 46.74L205.914 46.005C206.374 46.435 206.829 46.75 207.279 46.95C207.739 47.14 208.254 47.235 208.824 47.235C209.334 47.235 209.784 47.13 210.174 46.92C210.564 46.71 210.864 46.415 211.074 46.035C211.294 45.655 211.404 45.22 211.404 44.73C211.404 44.03 211.164 43.465 210.684 43.035C210.214 42.605 209.594 42.39 208.824 42.39C208.424 42.39 208.034 42.44 207.654 42.54C207.274 42.63 206.879 42.78 206.469 42.99L205.719 42.75L205.959 37.5H211.929V38.445H206.889L206.724 42.075C207.124 41.875 207.509 41.735 207.879 41.655C208.249 41.565 208.639 41.52 209.049 41.52C209.739 41.52 210.339 41.655 210.849 41.925C211.369 42.185 211.769 42.555 212.049 43.035C212.339 43.505 212.484 44.055 212.484 44.685C212.484 45.375 212.329 45.98 212.019 46.5C211.709 47.02 211.279 47.43 210.729 47.73C210.179 48.02 209.539 48.165 208.809 48.165ZM217.137 48V47.205L221.337 42.615C221.667 42.255 221.922 41.94 222.102 41.67C222.292 41.39 222.422 41.13 222.492 40.89C222.572 40.65 222.612 40.395 222.612 40.125C222.612 39.595 222.402 39.16 221.982 38.82C221.572 38.47 221.047 38.295 220.407 38.295C219.917 38.295 219.462 38.39 219.042 38.58C218.622 38.77 218.152 39.1 217.632 39.57L217.002 38.82C217.552 38.32 218.107 37.95 218.667 37.71C219.227 37.46 219.812 37.335 220.422 37.335C221.052 37.335 221.612 37.455 222.102 37.695C222.592 37.925 222.977 38.245 223.257 38.655C223.537 39.065 223.677 39.535 223.677 40.065C223.677 40.415 223.632 40.74 223.542 41.04C223.452 41.33 223.292 41.645 223.062 41.985C222.832 42.315 222.502 42.715 222.072 43.185L218.487 47.07L223.902 47.055V48H217.137ZM230.526 48V45.195H224.556V44.325L230.451 37.5H231.621V44.25H232.881V45.195H231.621V48H230.526ZM225.906 44.25H230.526V38.895L225.906 44.25ZM238.403 48.15C237.593 48.15 236.878 47.935 236.258 47.505C235.648 47.075 235.168 46.485 234.818 45.735C234.468 44.975 234.293 44.1 234.293 43.11C234.293 41.95 234.488 40.94 234.878 40.08C235.268 39.21 235.818 38.535 236.528 38.055C237.238 37.575 238.063 37.335 239.003 37.335C239.443 37.335 239.878 37.395 240.308 37.515C240.738 37.635 241.123 37.81 241.463 38.04L240.923 38.88C240.613 38.7 240.288 38.56 239.948 38.46C239.608 38.36 239.263 38.31 238.913 38.31C238.193 38.31 237.568 38.5 237.038 38.88C236.518 39.25 236.113 39.785 235.823 40.485C235.543 41.185 235.393 42.025 235.373 43.005C235.763 42.505 236.228 42.115 236.768 41.835C237.308 41.555 237.868 41.415 238.448 41.415C239.128 41.415 239.733 41.555 240.263 41.835C240.793 42.115 241.208 42.505 241.508 43.005C241.808 43.495 241.958 44.055 241.958 44.685C241.958 45.345 241.803 45.94 241.493 46.47C241.183 46.99 240.758 47.4 240.218 47.7C239.688 48 239.083 48.15 238.403 48.15ZM238.298 42.3C237.748 42.3 237.218 42.44 236.708 42.72C236.208 42.99 235.773 43.365 235.403 43.845C235.483 44.515 235.653 45.105 235.913 45.615C236.183 46.115 236.528 46.505 236.948 46.785C237.378 47.065 237.858 47.205 238.388 47.205C238.868 47.205 239.293 47.1 239.663 46.89C240.043 46.67 240.338 46.37 240.548 45.99C240.768 45.61 240.878 45.185 240.878 44.715C240.878 44.245 240.768 43.83 240.548 43.47C240.328 43.1 240.023 42.815 239.633 42.615C239.253 42.405 238.808 42.3 238.298 42.3Z" fill="#212121"/>
<path d="M20.0156 72.0156V70L12 75.0156L3.98438 70V72.0156L12 76.9844L20.0156 72.0156ZM20.0156 67.9844C20.5469 67.9844 21 68.1875 21.375 68.5938C21.7812 69 21.9844 69.4688 21.9844 70V82C21.9844 82.5312 21.7812 83 21.375 83.4062C21 83.8125 20.5469 84.0156 20.0156 84.0156H3.98438C3.45312 84.0156 2.98438 83.8125 2.57812 83.4062C2.20312 83 2.01562 82.5312 2.01562 82V70C2.01562 69.4688 2.20312 69 2.57812 68.5938C2.98438 68.1875 3.45312 67.9844 3.98438 67.9844H20.0156Z" fill="#757575"/>
<path d="M34.945 81V73.485H36.055V74.31C36.625 73.66 37.36 73.335 38.26 73.335C38.79 73.335 39.26 73.46 39.67 73.71C40.08 73.95 40.4 74.28 40.63 74.7C40.94 74.24 41.31 73.9 41.74 73.68C42.17 73.45 42.66 73.335 43.21 73.335C43.76 73.335 44.24 73.46 44.65 73.71C45.06 73.95 45.38 74.29 45.61 74.73C45.85 75.16 45.97 75.665 45.97 76.245V81H44.875V76.47C44.875 75.8 44.7 75.275 44.35 74.895C44 74.505 43.525 74.31 42.925 74.31C42.515 74.31 42.14 74.415 41.8 74.625C41.46 74.825 41.17 75.13 40.93 75.54C40.95 75.65 40.965 75.765 40.975 75.885C40.995 75.995 41.005 76.115 41.005 76.245V81H39.91V76.47C39.91 75.8 39.735 75.275 39.385 74.895C39.035 74.505 38.565 74.31 37.975 74.31C37.575 74.31 37.21 74.405 36.88 74.595C36.56 74.775 36.285 75.045 36.055 75.405V81H34.945ZM50.2056 81.135C49.6556 81.135 49.1706 81.04 48.7506 80.85C48.3406 80.66 48.0156 80.395 47.7756 80.055C47.5456 79.715 47.4306 79.32 47.4306 78.87C47.4306 78.16 47.7006 77.6 48.2406 77.19C48.7806 76.78 49.5106 76.575 50.4306 76.575C51.2406 76.575 51.9756 76.745 52.6356 77.085V76.095C52.6356 75.495 52.4656 75.045 52.1256 74.745C51.7856 74.435 51.2906 74.28 50.6406 74.28C50.2706 74.28 49.8956 74.335 49.5156 74.445C49.1456 74.545 48.7356 74.71 48.2856 74.94L47.8656 74.085C48.4056 73.825 48.9056 73.635 49.3656 73.515C49.8256 73.395 50.2856 73.335 50.7456 73.335C51.6956 73.335 52.4256 73.56 52.9356 74.01C53.4556 74.46 53.7156 75.105 53.7156 75.945V81H52.6356V80.265C52.2956 80.555 51.9206 80.775 51.5106 80.925C51.1106 81.065 50.6756 81.135 50.2056 81.135ZM48.4956 78.84C48.4956 79.26 48.6706 79.605 49.0206 79.875C49.3806 80.135 49.8406 80.265 50.4006 80.265C50.8506 80.265 51.2606 80.195 51.6306 80.055C52.0006 79.915 52.3356 79.695 52.6356 79.395V77.985C52.3256 77.775 51.9956 77.625 51.6456 77.535C51.2956 77.435 50.9006 77.385 50.4606 77.385C49.8606 77.385 49.3806 77.52 49.0206 77.79C48.6706 78.05 48.4956 78.4 48.4956 78.84ZM55.57 81V73.485H56.68V81H55.57ZM56.125 72.045C55.925 72.045 55.75 71.97 55.6 71.82C55.45 71.67 55.375 71.49 55.375 71.28C55.375 71.08 55.45 70.91 55.6 70.77C55.75 70.62 55.925 70.545 56.125 70.545C56.335 70.545 56.51 70.62 56.65 70.77C56.8 70.91 56.875 71.085 56.875 71.295C56.875 71.495 56.8 71.67 56.65 71.82C56.51 71.97 56.335 72.045 56.125 72.045ZM58.5729 81V70.5L59.6829 70.245V81H58.5729ZM66.6759 83.16C65.9059 83.16 65.1909 83.025 64.5309 82.755C63.8809 82.495 63.3109 82.125 62.8209 81.645C62.3409 81.175 61.9659 80.62 61.6959 79.98C61.4259 79.34 61.2909 78.645 61.2909 77.895C61.2909 77.105 61.4259 76.375 61.6959 75.705C61.9659 75.035 62.3409 74.45 62.8209 73.95C63.3009 73.45 63.8659 73.06 64.5159 72.78C65.1659 72.5 65.8709 72.36 66.6309 72.36C67.3409 72.36 67.9959 72.48 68.5959 72.72C69.2059 72.95 69.7359 73.275 70.1859 73.695C70.6359 74.105 70.9859 74.59 71.2359 75.15C71.4959 75.71 71.6259 76.315 71.6259 76.965C71.6259 77.575 71.5109 78.125 71.2809 78.615C71.0509 79.095 70.7359 79.475 70.3359 79.755C69.9359 80.035 69.4809 80.175 68.9709 80.175C68.3209 80.175 67.8559 79.97 67.5759 79.56C67.3259 79.78 67.0659 79.95 66.7959 80.07C66.5259 80.18 66.2559 80.235 65.9859 80.235C65.5759 80.235 65.2059 80.135 64.8759 79.935C64.5559 79.735 64.3009 79.465 64.1109 79.125C63.9309 78.785 63.8409 78.4 63.8409 77.97C63.8409 77.48 63.9509 77.035 64.1709 76.635C64.4009 76.235 64.7059 75.915 65.0859 75.675C65.4759 75.435 65.9059 75.315 66.3759 75.315C66.9959 75.315 67.5009 75.51 67.8909 75.9L67.9659 75.51H68.8059L68.2209 78.39C68.1509 78.75 68.1859 79.03 68.3259 79.23C68.4759 79.42 68.7209 79.515 69.0609 79.515C69.4109 79.515 69.7259 79.405 70.0059 79.185C70.2859 78.965 70.5059 78.665 70.6659 78.285C70.8259 77.895 70.9059 77.465 70.9059 76.995C70.9059 76.235 70.7159 75.555 70.3359 74.955C69.9559 74.355 69.4409 73.885 68.7909 73.545C68.1509 73.195 67.4209 73.02 66.6009 73.02C65.9609 73.02 65.3609 73.145 64.8009 73.395C64.2509 73.635 63.7659 73.975 63.3459 74.415C62.9259 74.855 62.6009 75.37 62.3709 75.96C62.1409 76.55 62.0259 77.185 62.0259 77.865C62.0259 78.755 62.2259 79.55 62.6259 80.25C63.0359 80.94 63.5959 81.485 64.3059 81.885C65.0159 82.285 65.8209 82.485 66.7209 82.485C67.6609 82.485 68.5109 82.28 69.2709 81.87L69.5409 82.485C69.1109 82.705 68.6509 82.87 68.1609 82.98C67.6809 83.1 67.1859 83.16 66.6759 83.16ZM66.1659 79.53C66.6259 79.53 67.0309 79.355 67.3809 79.005C67.3709 78.895 67.3659 78.785 67.3659 78.675C67.3659 78.565 67.3809 78.445 67.4109 78.315L67.7259 76.725C67.5859 76.505 67.3959 76.335 67.1559 76.215C66.9159 76.095 66.6509 76.035 66.3609 76.035C66.0509 76.035 65.7659 76.12 65.5059 76.29C65.2559 76.46 65.0509 76.69 64.8909 76.98C64.7409 77.26 64.6659 77.57 64.6659 77.91C64.6659 78.39 64.8059 78.78 65.0859 79.08C65.3659 79.38 65.7259 79.53 66.1659 79.53ZM73.2214 81V73.485H74.3314V74.31C74.9014 73.66 75.6364 73.335 76.5364 73.335C77.0664 73.335 77.5364 73.46 77.9464 73.71C78.3564 73.95 78.6764 74.28 78.9064 74.7C79.2164 74.24 79.5864 73.9 80.0164 73.68C80.4464 73.45 80.9364 73.335 81.4864 73.335C82.0364 73.335 82.5164 73.46 82.9264 73.71C83.3364 73.95 83.6564 74.29 83.8864 74.73C84.1264 75.16 84.2464 75.665 84.2464 76.245V81H83.1514V76.47C83.1514 75.8 82.9764 75.275 82.6264 74.895C82.2764 74.505 81.8014 74.31 81.2014 74.31C80.7914 74.31 80.4164 74.415 80.0764 74.625C79.7364 74.825 79.4464 75.13 79.2064 75.54C79.2264 75.65 79.2414 75.765 79.2514 75.885C79.2714 75.995 79.2814 76.115 79.2814 76.245V81H78.1864V76.47C78.1864 75.8 78.0114 75.275 77.6614 74.895C77.3114 74.505 76.8414 74.31 76.2514 74.31C75.8514 74.31 75.4864 74.405 75.1564 74.595C74.8364 74.775 74.5614 75.045 74.3314 75.405V81H73.2214ZM88.482 81.135C87.932 81.135 87.447 81.04 87.027 80.85C86.617 80.66 86.292 80.395 86.052 80.055C85.822 79.715 85.707 79.32 85.707 78.87C85.707 78.16 85.977 77.6 86.517 77.19C87.057 76.78 87.787 76.575 88.707 76.575C89.517 76.575 90.252 76.745 90.912 77.085V76.095C90.912 75.495 90.742 75.045 90.402 74.745C90.062 74.435 89.567 74.28 88.917 74.28C88.547 74.28 88.172 74.335 87.792 74.445C87.422 74.545 87.012 74.71 86.562 74.94L86.142 74.085C86.682 73.825 87.182 73.635 87.642 73.515C88.102 73.395 88.562 73.335 89.022 73.335C89.972 73.335 90.702 73.56 91.212 74.01C91.732 74.46 91.992 75.105 91.992 75.945V81H90.912V80.265C90.572 80.555 90.197 80.775 89.787 80.925C89.387 81.065 88.952 81.135 88.482 81.135ZM86.772 78.84C86.772 79.26 86.947 79.605 87.297 79.875C87.657 80.135 88.117 80.265 88.677 80.265C89.127 80.265 89.537 80.195 89.907 80.055C90.277 79.915 90.612 79.695 90.912 79.395V77.985C90.602 77.775 90.272 77.625 89.922 77.535C89.572 77.435 89.177 77.385 88.737 77.385C88.137 77.385 87.657 77.52 87.297 77.79C86.947 78.05 86.772 78.4 86.772 78.84ZM93.8464 81V73.485H94.9564V81H93.8464ZM94.4014 72.045C94.2014 72.045 94.0264 71.97 93.8764 71.82C93.7264 71.67 93.6514 71.49 93.6514 71.28C93.6514 71.08 93.7264 70.91 93.8764 70.77C94.0264 70.62 94.2014 70.545 94.4014 70.545C94.6114 70.545 94.7864 70.62 94.9264 70.77C95.0764 70.91 95.1514 71.085 95.1514 71.295C95.1514 71.495 95.0764 71.67 94.9264 71.82C94.7864 71.97 94.6114 72.045 94.4014 72.045ZM96.8493 81V70.5L97.9593 70.245V81H96.8493ZM100.782 81.09C100.572 81.09 100.392 81.015 100.242 80.865C100.092 80.715 100.017 80.535 100.017 80.325C100.017 80.115 100.092 79.935 100.242 79.785C100.392 79.635 100.572 79.56 100.782 79.56C100.992 79.56 101.172 79.635 101.322 79.785C101.472 79.935 101.547 80.115 101.547 80.325C101.547 80.535 101.472 80.715 101.322 80.865C101.172 81.015 100.992 81.09 100.782 81.09ZM106.628 81.135C105.918 81.135 105.273 80.965 104.693 80.625C104.113 80.275 103.653 79.805 103.313 79.215C102.973 78.625 102.803 77.965 102.803 77.235C102.803 76.505 102.973 75.85 103.313 75.27C103.653 74.68 104.113 74.21 104.693 73.86C105.273 73.51 105.918 73.335 106.628 73.335C107.178 73.335 107.708 73.44 108.218 73.65C108.728 73.85 109.178 74.14 109.568 74.52L108.863 75.33C108.563 75.01 108.218 74.77 107.828 74.61C107.448 74.44 107.053 74.355 106.643 74.355C106.133 74.355 105.668 74.485 105.248 74.745C104.838 74.995 104.508 75.34 104.258 75.78C104.018 76.21 103.898 76.695 103.898 77.235C103.898 77.775 104.018 78.265 104.258 78.705C104.508 79.145 104.843 79.495 105.263 79.755C105.683 80.005 106.148 80.13 106.658 80.13C107.068 80.13 107.453 80.05 107.813 79.89C108.183 79.73 108.528 79.495 108.848 79.185L109.538 79.935C109.138 80.315 108.688 80.61 108.188 80.82C107.688 81.03 107.168 81.135 106.628 81.135ZM114.114 81.15C113.404 81.15 112.754 80.98 112.164 80.64C111.584 80.29 111.124 79.82 110.784 79.23C110.444 78.64 110.274 77.98 110.274 77.25C110.274 76.52 110.444 75.86 110.784 75.27C111.124 74.68 111.584 74.215 112.164 73.875C112.754 73.525 113.404 73.35 114.114 73.35C114.834 73.35 115.484 73.525 116.064 73.875C116.644 74.215 117.104 74.68 117.444 75.27C117.784 75.86 117.954 76.52 117.954 77.25C117.954 77.98 117.784 78.64 117.444 79.23C117.104 79.82 116.644 80.29 116.064 80.64C115.484 80.98 114.834 81.15 114.114 81.15ZM114.114 80.16C114.624 80.16 115.084 80.03 115.494 79.77C115.914 79.51 116.244 79.16 116.484 78.72C116.734 78.28 116.859 77.79 116.859 77.25C116.859 76.7 116.734 76.21 116.484 75.78C116.244 75.34 115.914 74.99 115.494 74.73C115.084 74.47 114.624 74.34 114.114 74.34C113.604 74.34 113.139 74.47 112.719 74.73C112.309 74.99 111.979 75.34 111.729 75.78C111.489 76.21 111.369 76.7 111.369 77.25C111.369 77.79 111.489 78.28 111.729 78.72C111.979 79.16 112.309 79.51 112.719 79.77C113.139 80.03 113.604 80.16 114.114 80.16ZM119.496 81V73.485H120.606V74.31C121.176 73.66 121.911 73.335 122.811 73.335C123.341 73.335 123.811 73.46 124.221 73.71C124.631 73.95 124.951 74.28 125.181 74.7C125.491 74.24 125.861 73.9 126.291 73.68C126.721 73.45 127.211 73.335 127.761 73.335C128.311 73.335 128.791 73.46 129.201 73.71C129.611 73.95 129.931 74.29 130.161 74.73C130.401 75.16 130.521 75.665 130.521 76.245V81H129.426V76.47C129.426 75.8 129.251 75.275 128.901 74.895C128.551 74.505 128.076 74.31 127.476 74.31C127.066 74.31 126.691 74.415 126.351 74.625C126.011 74.825 125.721 75.13 125.481 75.54C125.501 75.65 125.516 75.765 125.526 75.885C125.546 75.995 125.556 76.115 125.556 76.245V81H124.461V76.47C124.461 75.8 124.286 75.275 123.936 74.895C123.586 74.505 123.116 74.31 122.526 74.31C122.126 74.31 121.761 74.405 121.431 74.595C121.111 74.775 120.836 75.045 120.606 75.405V81H119.496Z" fill="#212121"/>
</svg>
